PathFileType	4	(X/Y/Z)	s09c0201.trc
DataRate	CameraRate	NumFrames	NumMarkers	Units	OrigDataRate	OrigDataStartFrame	OrigNumFrames
200	200	4	50	mm	200	0	2000
Frame#	Time	racr			lacr			c7			jug			rlel			rdr			llel			ldr			s2			lic			ric			lasi			rasi			rpsi			lpsi			rgt			lgt			rth1			rth2			rth3			rth4			rlfc			rmfc			rsh1			rsh2			rsh3			rsh4			rlmal			rmmal			rcal			rtoe			rmt5			lth1			lth2			lth4			lth3			llfc			lmfc			llmal			lmmal			lcal			lmt5			lsh1			lsh2			lsh3			lsh4			ltoe			SBIKE			LBIKE			RBIKE			
		X1	Y1	Z1	X2	Y2	Z2	X3	Y3	Z3	X4	Y4	Z4	X5	Y5	Z5	X6	Y6	Z6	X7	Y7	Z7	X8	Y8	Z8	X9	Y9	Z9	X10	Y10	Z10	X11	Y11	Z11	X12	Y12	Z12	X13	Y13	Z13	X14	Y14	Z14	X15	Y15	Z15	X16	Y16	Z16	X17	Y17	Z17	X18	Y18	Z18	X19	Y19	Z19	X20	Y20	Z20	X21	Y21	Z21	X22	Y22	Z22	X23	Y23	Z23	X24	Y24	Z24	X25	Y25	Z25	X26	Y26	Z26	X27	Y27	Z27	X28	Y28	Z28	X29	Y29	Z29	X30	Y30	Z30	X31	Y31	Z31	X32	Y32	Z32	X33	Y33	Z33	X34	Y34	Z34	X35	Y35	Z35	X36	Y36	Z36	X37	Y37	Z37	X38	Y38	Z38	X39	Y39	Z39	X40	Y40	Z40	X41	Y41	Z41	X42	Y42	Z42	X43	Y43	Z43	X44	Y44	Z44	X45	Y45	Z45	X46	Y46	Z46	X47	Y47	Z47	X48	Y48	Z48	X49	Y49	Z49	X50	Y50	Z50	
0	0.0000	456.162526	1339.425552	-83.578904	468.643649	1313.858835	-422.953731	426.549260	1372.400488	-243.213672	429.500574	1237.835803	-250.182812	507.904835	1094.089219	-8.783892	693.870105	910.447035	-41.438001	456.089756	1040.716092	-505.397760	672.224918	907.478010	-452.320781	-6.001919	1102.890615	-240.765167	125.872278	1123.000261	-388.219897	138.070366	1122.271881	-94.324964	177.318094	1073.522403	-365.702406	190.289042	1073.710205	-115.904547	20.205319	1137.285552	-180.759977	11.997488	1144.698839	-290.465080	127.241363	969.517796	-52.064955	106.867693	999.426715	-436.086490	216.032907	859.159772	-55.984378	285.021348	805.914769	-63.195834	313.756605	721.732074	-69.394289	310.234469	823.204137	-83.743558	347.687798	623.461257	-99.418596	329.207371	608.558277	-196.473520	263.679067	560.568626	-69.072622	221.032842	482.207720	-82.633077	145.859458	437.149354	-82.582826	240.803374	467.977283	-114.152076	74.990930	365.426617	-83.900273	83.188709	374.575843	-162.300781	-13.730620	363.755610	-122.489988	224.189367	248.319019	-125.464672	142.901964	266.534307	-60.347333	229.624628	936.505746	-435.771392	314.792629	931.807055	-431.102044	327.113360	964.332862	-414.628696	390.209201	881.592876	-430.611395	476.820760	820.956360	-412.931387	496.641060	811.704495	-313.231468	366.901242	475.000625	-408.812331	384.382592	483.155460	-338.571407	292.524424	448.538908	-371.677059	452.513834	380.686737	-433.174015	451.593419	723.698842	-432.409165	446.983260	637.757034	-420.451828	398.513434	563.188464	-417.732799	471.521129	633.377972	-389.689885	544.553851	383.658601	-364.075520	-65.042228	852.647555	-240.628410	21.247600	83.496253	-442.246038	21.277052	83.706112	-43.851161	
1	0.0050	456.234363	1339.375575	-83.661179	468.676462	1313.746093	-422.987974	426.612195	1372.333827	-243.276741	429.542794	1237.767602	-250.223882	507.925205	1094.082229	-8.741235	693.889559	910.464211	-41.367764	456.038083	1040.659895	-505.419366	672.235646	907.473764	-452.308004	-6.002213	1102.965186	-240.655873	125.824858	1123.081375	-388.133296	138.159818	1122.265612	-94.287629	177.263453	1073.579530	-365.702922	190.364815	1073.673612	-115.832938	20.269595	1137.337695	-180.692389	12.004151	1144.787409	-290.374407	127.219078	969.499177	-52.037272	106.796560	999.644345	-436.096699	215.887974	859.034812	-55.965559	284.741353	805.658170	-63.170466	313.415999	721.484572	-69.338469	310.016620	822.897831	-83.729389	347.282265	623.145364	-99.319766	328.806030	608.291193	-196.412362	263.367958	560.113390	-69.031792	220.910366	481.604986	-82.609645	145.911873	436.395816	-82.596659	240.795409	467.426191	-114.067141	75.164689	364.462541	-83.898104	83.268122	373.641840	-162.263317	-13.487245	362.724684	-122.480851	224.496244	247.479622	-125.498814	143.164627	265.630597	-60.343988	229.651236	936.964429	-435.769458	314.892808	932.414365	-431.010376	327.090931	964.966701	-414.575670	390.362138	882.309398	-430.597108	477.043327	821.919919	-413.020082	496.893126	812.660194	-313.197158	366.782482	476.162247	-408.855184	384.311657	484.181474	-338.507050	292.371992	449.701494	-371.682780	452.261045	381.656727	-433.164884	451.738877	724.641259	-432.422002	447.079069	638.677409	-420.439587	398.497400	564.225349	-417.723794	471.598075	634.321921	-389.757793	544.271735	384.511006	-364.066632	-65.047527	852.652385	-240.624550	21.268132	83.638724	-442.147835	21.278111	83.695097	-43.857359	
2	0.0100	456.309968	1339.321722	-83.728801	468.712879	1313.674240	-423.024039	426.668045	1372.247036	-243.334573	429.570142	1237.681603	-250.310952	507.923467	1094.053045	-8.687215	693.901591	910.468341	-41.319248	455.997558	1040.589885	-505.449568	672.214153	907.478846	-452.300134	-6.010751	1103.054500	-240.559237	125.779282	1123.146918	-388.079223	138.256567	1122.239835	-94.239259	177.226540	1073.632815	-365.673258	190.398572	1073.615255	-115.836609	20.318365	1137.385129	-180.600745	11.941462	1144.920158	-290.229826	127.195630	969.501209	-51.999899	106.700205	999.868945	-436.101152	215.738802	858.951988	-55.907202	284.496048	805.464819	-63.137125	313.029445	721.256458	-69.292362	309.815358	822.675050	-83.701973	346.842320	622.844162	-99.287586	328.400169	608.052982	-196.320814	263.064753	559.662854	-68.990276	220.839520	481.013095	-82.567372	145.927535	435.623862	-82.558727	240.734751	466.882774	-114.033900	75.344366	363.614600	-83.859071	83.634174	372.644114	-162.241320	-13.511148	361.444540	-122.521180	224.782147	246.638063	-125.523887	143.479322	264.695485	-60.354959	229.671141	937.378749	-435.763135	314.918287	933.017335	-431.008684	327.070386	965.520421	-414.542523	390.502230	883.082738	-430.614143	477.294018	822.782728	-413.012342	497.132345	813.551013	-313.191962	366.643469	477.135245	-408.852466	384.192843	485.105909	-338.305080	292.179560	450.829976	-371.695615	451.994387	382.598793	-433.170725	451.902730	725.536142	-432.399777	447.148362	639.628420	-420.457835	398.499005	565.231962	-417.742417	471.668928	635.228850	-389.696235	544.000226	385.264865	-364.045441	-65.057014	852.652697	-240.621143	21.258055	83.521223	-442.249924	21.283034	83.693700	-43.850335	
3	0.0150	456.397423	1339.272246	-83.804918	468.862163	1313.333874	-423.156034	426.870609	1372.193000	-243.547511	429.629716	1237.615375	-250.342654	508.423102	1093.921240	-8.381766	694.041247	910.480293	-41.382449	456.137892	1040.422894	-505.797667	672.201518	907.476834	-452.299228	-6.389697	1103.047409	-241.145774	125.735108	1123.220976	-387.981709	138.331203	1122.236035	-94.188411	177.189942	1073.677536	-365.652823	190.452180	1073.568186	-115.812594	21.692977	1136.841585	-180.758410	13.423703	1144.215787	-290.997694	127.192322	969.484051	-51.974308	106.599797	1000.077435	-436.103714	215.599182	858.868427	-55.821730	284.285453	805.298483	-63.115384	312.711765	720.988557	-69.242662	309.542001	822.335428	-83.857550	346.663889	622.269190	-99.122984	327.973033	607.798607	-196.224433	262.809972	559.178397	-68.942387	220.934643	480.425067	-82.342339	145.531226	435.473881	-82.160102	240.699809	466.326406	-114.020090	75.778810	362.685181	-83.309843	83.670327	371.754958	-162.195804	-13.276222	360.427804	-122.424923	225.096162	245.731150	-125.527002	143.778799	263.769783	-60.360847	229.663341	937.547761	-435.789530	314.960730	933.573251	-430.975595	326.801929	966.481508	-414.354954	390.602488	883.658841	-430.734384	477.533047	823.705668	-413.028546	497.067430	814.697756	-313.330459	366.254049	478.598990	-408.896066	384.704656	485.643718	-338.727679	291.993817	451.953624	-371.685421	451.711147	383.503892	-433.166313	452.050053	726.466347	-432.414814	447.368590	640.409512	-420.387763	398.462575	566.189641	-417.695731	471.757129	636.077689	-389.423659	543.738810	386.061895	-364.044349	-65.068539	852.663480	-240.630761	21.236434	83.530497	-442.233641	21.270558	83.696386	-43.850118	
